<svg width="42" height="34" viewBox="0 0 42 34" fill="none" xmlns="http://www.w3.org/2000/svg">
<rect x="0.5" y="0.5" width="41" height="33" rx="7.5" fill="#D9D9D9" stroke="#D9D9D9"/>
<path d="M20.25 24H15.7614V9.45455H20.4489C21.8598 9.45455 23.0672 9.74574 24.071 10.3281C25.0748 10.9058 25.8442 11.7367 26.3793 12.821C26.9143 13.9006 27.1818 15.1932 27.1818 16.6989C27.1818 18.214 26.9119 19.5185 26.3722 20.6122C25.8324 21.7012 25.0464 22.5393 24.0142 23.1264C22.982 23.7088 21.7273 24 20.25 24ZM17.5227 22.4375H20.1364C21.339 22.4375 22.3357 22.2055 23.1264 21.7415C23.9171 21.2775 24.5066 20.617 24.8949 19.7599C25.2831 18.9029 25.4773 17.8826 25.4773 16.6989C25.4773 15.5246 25.2855 14.5137 24.902 13.6662C24.5185 12.8139 23.9455 12.1605 23.1832 11.706C22.4209 11.2467 21.4716 11.017 20.3352 11.017H17.5227V22.4375Z" fill="black"/>
</svg>
