<svg width="78" height="56" viewBox="0 0 68 46" fill="none" xmlns="http://www.w3.org/2000/svg">
<path d="M1.6 21.58C1.30667 21.5933 1.08 21.54 0.92 21.42C0.746667 21.3 0.686667 21.0733 0.74 20.74C0.74 20.7 0.753333 20.64 0.78 20.56C0.806667 20.48 0.84 20.4267 0.88 20.4C0.866667 20.7333 0.906667 20.9667 1 21.1C1.09333 21.2333 1.24667 21.3 1.46 21.3C1.98 21.3 2.51333 21.1333 3.06 20.8C3.62 20.4667 4.17333 20.02 4.72 19.46C4.58667 19.42 4.41333 19.34 4.2 19.22C4 19.1133 3.84667 19.0267 3.74 18.96C3.20667 18.5733 2.94 18.1267 2.94 17.62C2.94 17.2333 3.11333 16.8133 3.46 16.36C3.80667 15.9067 4.37333 15.4467 5.16 14.98C5.66667 14.6733 6.25333 14.4 6.92 14.16C7.58667 13.92 8.20667 13.7267 8.78 13.58C8.98 13.1933 9.17333 12.8133 9.36 12.44C9.54667 12.0667 9.72667 11.6933 9.9 11.32C9.96667 11.1733 10.0867 10.8933 10.26 10.48C10.4333 10.0667 10.6267 9.58 10.84 9.02C11.0533 8.46 11.2533 7.86667 11.44 7.24C11.64 6.6 11.8067 5.98 11.94 5.38C12.0733 4.78 12.14 4.24667 12.14 3.78C12.14 3.32667 12.06 2.97333 11.9 2.72C11.7533 2.46667 11.4867 2.34 11.1 2.34H11.08C10.9733 2.34 10.92 2.30667 10.92 2.24C10.92 2.17333 10.9867 2.12667 11.12 2.1C11.76 2.03333 12.2067 2.18667 12.46 2.56C12.7133 2.93333 12.84 3.42667 12.84 4.04C12.84 4.14667 12.8333 4.26 12.82 4.38C12.82 4.5 12.8133 4.62667 12.8 4.76C12.88 4.82667 12.9333 4.94 12.96 5.1C13.04 5.52667 13.12 6.08667 13.2 6.78C13.2933 7.47333 13.4 8.23333 13.52 9.06C13.64 9.88667 13.78 10.7267 13.94 11.58C14.1133 12.42 14.3133 13.2133 14.54 13.96C14.78 14.6933 15.06 15.3133 15.38 15.82C15.4467 15.9267 15.54 16.0667 15.66 16.24C15.78 16.4 15.9267 16.5467 16.1 16.68C16.2733 16.8133 16.4667 16.88 16.68 16.88C16.9067 16.88 17.14 16.7867 17.38 16.6C17.5933 16.4267 17.7933 16.1867 17.98 15.88C18.1667 15.5733 18.34 15.2467 18.5 14.9C18.58 14.7533 18.6533 14.68 18.72 14.68C18.7867 14.68 18.8333 14.72 18.86 14.8C18.9 14.8667 18.9133 14.9333 18.9 15C18.8467 15.1733 18.7333 15.38 18.56 15.62C18.4 15.8467 18.2333 16.06 18.06 16.26C17.8867 16.4467 17.7467 16.58 17.64 16.66C17.4 16.8467 17.1667 16.98 16.94 17.06C16.7267 17.1533 16.5267 17.2 16.34 17.2C15.9 17.2 15.5133 17.0333 15.18 16.7C14.86 16.3533 14.58 15.9933 14.34 15.62C14.0067 15.0867 13.74 14.4133 13.54 13.6C13.3533 12.7867 13.2067 11.9067 13.1 10.96C12.9933 10.0133 12.9067 9.08 12.84 8.16C12.7867 7.24 12.7267 6.4 12.66 5.64C12.5 6.38667 12.28 7.15333 12 7.94C11.72 8.72667 11.4333 9.45333 11.14 10.12C10.86 10.7733 10.6267 11.28 10.44 11.64C10.1467 12.24 9.82667 12.84 9.48 13.44C10.0933 13.2933 10.7333 13.16 11.4 13.04C12.0667 12.92 12.6533 12.8067 13.16 12.7H13.22C13.2733 12.7 13.3 12.72 13.3 12.76C13.3 12.8 13.2667 12.8533 13.2 12.92C13.1333 12.9867 13.0467 13.0333 12.94 13.06C12.3667 13.1667 11.7467 13.2933 11.08 13.44C10.4133 13.5733 9.78667 13.72 9.2 13.88C8.58667 14.9333 7.96667 15.9333 7.34 16.88C6.71333 17.8267 6.02667 18.6667 5.28 19.4C5.78667 19.56 6.43333 19.64 7.22 19.64H7.26C7.36667 19.64 7.42 19.6667 7.42 19.72C7.42 19.8 7.34 19.84 7.18 19.84C6.80667 19.8533 6.44 19.8333 6.08 19.78C5.72 19.74 5.38667 19.6733 5.08 19.58C4.49333 20.1533 3.9 20.6133 3.3 20.96C2.71333 21.32 2.14667 21.5267 1.6 21.58ZM4.92 19.26C5.56 18.5933 6.18 17.8133 6.78 16.92C7.39333 16.0267 7.96667 15.0933 8.5 14.12C8.32667 14.1733 8.14667 14.2333 7.96 14.3C7.77333 14.3667 7.59333 14.4467 7.42 14.54C7.19333 14.6467 6.88667 14.8 6.5 15C6.11333 15.2 5.72667 15.4133 5.34 15.64C4.96667 15.8533 4.68 16.0467 4.48 16.22C4.21333 16.46 4.02 16.6933 3.9 16.92C3.78 17.1467 3.72 17.3667 3.72 17.58C3.72 17.7667 3.75333 17.9467 3.82 18.12C3.9 18.2933 3.99333 18.46 4.1 18.62C4.16667 18.7 4.28667 18.8067 4.46 18.94C4.64667 19.0867 4.8 19.1933 4.92 19.26ZM24.6581 18C24.2315 18 23.9048 17.8 23.6781 17.4C23.4515 17.0133 23.3381 16.5867 23.3381 16.12C23.3381 15.68 23.4115 15.22 23.5581 14.74C23.7048 14.26 23.8848 13.7867 24.0981 13.32C24.3248 12.8533 24.5581 12.4267 24.7981 12.04C24.5581 12.1333 24.3315 12.18 24.1181 12.18C24.0115 12.18 23.9181 12.1667 23.8381 12.14C23.7581 12.1133 23.6915 12.0933 23.6381 12.08C23.5715 12.24 23.4515 12.5067 23.2781 12.88C23.1181 13.2533 22.9448 13.6467 22.7581 14.06C22.5848 14.46 22.4315 14.8 22.2981 15.08C22.0848 15.5333 21.8981 15.76 21.7381 15.76C21.6581 15.76 21.6181 15.7067 21.6181 15.6C21.6181 15.52 21.6515 15.4133 21.7181 15.28C22.0248 14.7067 22.3115 14.14 22.5781 13.58C22.8581 13.02 23.1115 12.48 23.3381 11.96C23.3115 11.8933 23.2848 11.8067 23.2581 11.7C23.2315 11.58 23.2181 11.4533 23.2181 11.32C23.2181 11.1733 23.2315 11.02 23.2581 10.86C23.2981 10.6867 23.3515 10.52 23.4181 10.36C23.4581 10.2667 23.5315 10.1333 23.6381 9.96C23.7448 9.77333 23.8648 9.60667 23.9981 9.46C24.1315 9.3 24.2581 9.22 24.3781 9.22C24.6048 9.22 24.7181 9.34 24.7181 9.58C24.7181 9.80667 24.6448 10.0667 24.4981 10.36C24.3648 10.6533 24.2248 10.9267 24.0781 11.18C23.9315 11.42 23.8581 11.6 23.8581 11.72C23.8581 11.8267 23.9115 11.88 24.0181 11.88C24.1648 11.88 24.3448 11.8067 24.5581 11.66C24.7848 11.5 24.9648 11.3533 25.0981 11.22C25.1648 11.1533 25.2715 11.0533 25.4181 10.92C25.5648 10.7733 25.7048 10.7 25.8381 10.7C25.9715 10.7 26.0581 10.74 26.0981 10.82C26.1515 10.9 26.1781 10.9933 26.1781 11.1C26.1781 11.22 26.1248 11.3733 26.0181 11.56C25.9115 11.7333 25.7848 11.9067 25.6381 12.08C25.5048 12.2533 25.3915 12.4 25.2981 12.52C25.1115 12.8 24.8981 13.1533 24.6581 13.58C24.4181 14.0067 24.2115 14.4667 24.0381 14.96C23.8648 15.44 23.7781 15.9 23.7781 16.34C23.7781 16.6333 23.8515 16.94 23.9981 17.26C24.1448 17.58 24.3448 17.74 24.5981 17.74C24.8248 17.74 25.0648 17.62 25.3181 17.38C25.5848 17.14 25.8315 16.8533 26.0581 16.52C26.2981 16.1867 26.5048 15.8667 26.6781 15.56C26.8648 15.2533 26.9915 15.04 27.0581 14.92C27.0848 14.8533 27.1315 14.7733 27.1981 14.68C27.2648 14.5733 27.3448 14.52 27.4381 14.52C27.5181 14.52 27.5581 14.56 27.5581 14.64C27.5581 14.7067 27.5381 14.7867 27.4981 14.88C27.4715 14.96 27.4448 15.0333 27.4181 15.1C27.2981 15.38 27.1515 15.6733 26.9781 15.98C26.8048 16.2867 26.6848 16.4933 26.6181 16.6C26.4315 16.9067 26.1515 17.2133 25.7781 17.52C25.4181 17.84 25.0448 18 24.6581 18ZM32.2748 20.2C32.1415 20.2 32.0015 20.1133 31.8548 19.94C31.7215 19.78 31.5948 19.5533 31.4748 19.26C31.2748 18.78 31.1348 18.2733 31.0548 17.74C30.9748 17.22 30.9348 16.6933 30.9348 16.16C30.9348 15.5733 30.9748 15 31.0548 14.44C31.1348 13.88 31.2215 13.3733 31.3148 12.92C31.3815 12.6 31.4615 12.26 31.5548 11.9C31.6482 11.54 31.7348 11.2533 31.8148 11.04C31.7348 11.0533 31.6082 11.1 31.4348 11.18C31.2615 11.26 31.0815 11.34 30.8948 11.42C30.7215 11.5 30.5682 11.54 30.4348 11.54C30.2348 11.54 30.1348 11.4267 30.1348 11.2C30.1348 11.08 30.1748 10.9733 30.2548 10.88C30.3482 10.7867 30.4615 10.7133 30.5948 10.66C30.8615 10.54 31.1548 10.4533 31.4748 10.4C31.7948 10.3333 32.0082 10.2667 32.1148 10.2L32.6348 8.88C32.6882 8.74667 32.7815 8.53333 32.9148 8.24C33.0615 7.93333 33.2282 7.60667 33.4148 7.26C33.6148 6.91333 33.8082 6.6 33.9948 6.32C34.1415 6.10667 34.2815 5.94 34.4148 5.82C34.5482 5.68667 34.6948 5.62 34.8548 5.62C35.0948 5.62 35.2148 5.71333 35.2148 5.9C35.2148 6.00667 35.1682 6.16667 35.0748 6.38C34.9948 6.59333 34.8415 6.87333 34.6148 7.22C34.3615 7.62 34.1015 8.02 33.8348 8.42C33.5815 8.80667 33.3615 9.21333 33.1748 9.64C33.1615 9.69333 33.1282 9.78 33.0748 9.9C33.0348 10.0067 33.0015 10.0733 32.9748 10.1L33.3748 10.04C33.4815 10.0267 33.6015 10.02 33.7348 10.02C33.8682 10.0067 34.0148 10 34.1748 10C34.4015 10 34.6148 10.0133 34.8148 10.04C35.0282 10.0533 35.2015 10.0867 35.3348 10.14C35.4015 10.1667 35.4615 10.2 35.5148 10.24C35.5815 10.2667 35.6148 10.2933 35.6148 10.32C35.6148 10.3733 35.4415 10.4 35.0948 10.4C34.8948 10.4 34.6082 10.4333 34.2348 10.5C33.8748 10.5667 33.4615 10.6733 32.9948 10.82C32.7682 10.8867 32.6148 10.98 32.5348 11.1C32.4548 11.22 32.3482 11.5067 32.2148 11.96C32.0148 12.68 31.8548 13.3733 31.7348 14.04C31.6148 14.6933 31.5215 15.36 31.4548 16.04C31.4415 16.1733 31.4282 16.3133 31.4148 16.46C31.4148 16.6067 31.4148 16.7667 31.4148 16.94C31.4148 17.3933 31.4548 17.8667 31.5348 18.36C31.6282 18.8533 31.7615 19.28 31.9348 19.64C31.9748 19.72 32.0148 19.7933 32.0548 19.86C32.1082 19.9267 32.1682 19.9733 32.2348 20C32.3282 20.04 32.3748 20.0867 32.3748 20.14C32.3748 20.18 32.3415 20.2 32.2748 20.2ZM39.5542 20.5C39.2476 20.5 39.0142 20.3733 38.8542 20.12C38.7076 19.8667 38.6342 19.5733 38.6342 19.24C38.6342 18.84 38.7076 18.38 38.8542 17.86C39.0142 17.3533 39.2076 16.8333 39.4342 16.3C39.6609 15.7533 39.8942 15.2267 40.1342 14.72C40.3876 14.2133 40.6076 13.76 40.7942 13.36C40.9942 12.96 41.1276 12.6533 41.1942 12.44C41.2742 12.2 41.3142 12.02 41.3142 11.9C41.3142 11.7667 41.2676 11.7 41.1742 11.7C41.0676 11.7 40.9076 11.7867 40.6942 11.96C40.4942 12.12 40.2942 12.3 40.0942 12.5C39.9076 12.7 39.7742 12.8467 39.6942 12.94C39.2676 13.42 38.8809 13.9533 38.5342 14.54C38.2009 15.1267 37.9942 15.6267 37.9142 16.04C37.9009 16.1067 37.8742 16.2267 37.8342 16.4C37.8076 16.5733 37.7476 16.6533 37.6542 16.64C37.5209 16.6133 37.4276 16.5333 37.3742 16.4C37.3342 16.2533 37.3076 16.12 37.2942 16C37.2942 15.9333 37.2876 15.8667 37.2742 15.8C37.2742 15.72 37.2742 15.64 37.2742 15.56C37.2742 14.9067 37.3476 14.1667 37.4942 13.34C37.6409 12.5133 37.8276 11.6667 38.0542 10.8C38.2942 9.93333 38.5476 9.12667 38.8142 8.38C39.0809 7.63333 39.3342 7.01333 39.5742 6.52C39.6942 6.28 39.8276 6.05333 39.9742 5.84C40.1209 5.61333 40.2676 5.5 40.4142 5.5C40.5076 5.5 40.5876 5.54667 40.6542 5.64C40.7342 5.73333 40.7742 5.81333 40.7742 5.88C40.7742 5.93333 40.6809 6.14667 40.4942 6.52C40.3209 6.88 40.0942 7.36 39.8142 7.96C39.5342 8.54667 39.2476 9.22 38.9542 9.98C38.6742 10.74 38.4209 11.5533 38.1942 12.42C37.9676 13.2867 37.8142 14.1667 37.7342 15.06C37.7342 15.0733 37.7276 15.14 37.7142 15.26C37.7009 15.38 37.6876 15.5 37.6742 15.62C37.6742 15.74 37.6742 15.8 37.6742 15.8V15.78H37.6942C37.7209 15.62 37.7676 15.4667 37.8342 15.32C37.9142 15.1733 37.9942 15.0333 38.0742 14.9C38.4742 14.1 38.9876 13.3333 39.6142 12.6C39.9209 12.2533 40.2409 11.9533 40.5742 11.7C40.9076 11.4333 41.2542 11.3 41.6142 11.3C41.7609 11.3 41.8876 11.34 41.9942 11.42C42.1009 11.5 42.1542 11.6533 42.1542 11.88C42.1542 12.1733 42.0542 12.52 41.8542 12.92C41.6676 13.3067 41.4342 13.7133 41.1542 14.14C40.8876 14.5533 40.6409 14.9467 40.4142 15.32C40.1076 15.84 39.8276 16.3933 39.5742 16.98C39.3342 17.5533 39.2142 18.1533 39.2142 18.78C39.2142 18.9667 39.2276 19.1667 39.2542 19.38C39.2942 19.5933 39.3542 19.7733 39.4342 19.92C39.5276 20.08 39.6542 20.16 39.8142 20.16C39.9209 20.16 40.0209 20.1267 40.1142 20.06C40.2209 20.0067 40.3076 19.9533 40.3742 19.9C40.4942 19.78 40.5742 19.72 40.6142 19.72C40.6542 19.72 40.6742 19.74 40.6742 19.78C40.6742 19.86 40.6409 19.9333 40.5742 20C40.5076 20.08 40.4409 20.14 40.3742 20.18C40.2809 20.26 40.1542 20.3333 39.9942 20.4C39.8476 20.4667 39.7009 20.5 39.5542 20.5ZM45.9417 16.84C45.7684 16.84 45.6217 16.7533 45.5017 16.58C45.3951 16.4067 45.3484 16.1267 45.3617 15.74C45.3617 15.5533 45.4151 15.2467 45.5217 14.82C45.6284 14.38 45.7417 13.8933 45.8617 13.36C45.9951 12.8267 46.1084 12.3067 46.2017 11.8C46.3084 11.2933 46.3617 10.88 46.3617 10.56C46.3617 10.4133 46.3484 10.2933 46.3217 10.2C46.2951 10.0933 46.2284 10.04 46.1217 10.04C46.0417 10.04 45.9684 10.08 45.9017 10.16C45.8351 10.2267 45.7684 10.2933 45.7017 10.36C45.6084 10.48 45.5551 10.54 45.5417 10.54C45.5284 10.54 45.5217 10.52 45.5217 10.48C45.5217 10.32 45.5817 10.1467 45.7017 9.96C45.8351 9.76 45.9884 9.66 46.1617 9.66C46.3751 9.66 46.5284 9.76667 46.6217 9.98C46.7151 10.18 46.7617 10.4667 46.7617 10.84C46.7617 11.2533 46.7151 11.72 46.6217 12.24C46.5284 12.76 46.4284 13.2467 46.3217 13.7C46.2684 13.9133 46.2217 14.1733 46.1817 14.48C46.1417 14.7867 46.1217 15.0867 46.1217 15.38C46.1217 15.6333 46.1417 15.8467 46.1817 16.02C46.2351 16.18 46.3284 16.26 46.4617 16.26C46.5684 16.26 46.6951 16.2 46.8417 16.08C47.0017 15.9467 47.1884 15.7267 47.4017 15.42C47.7084 14.9933 47.9817 14.5067 48.2217 13.96C48.4751 13.4 48.7084 12.8933 48.9217 12.44C49.0017 12.2533 49.1017 12.16 49.2217 12.16C49.5284 12.16 49.6817 12.3267 49.6817 12.66C49.6817 12.9133 49.6417 13.2333 49.5617 13.62C49.4951 13.9933 49.4617 14.3533 49.4617 14.7C49.4617 15.3267 49.5817 15.64 49.8217 15.64C49.9417 15.64 50.0617 15.5667 50.1817 15.42C50.3151 15.26 50.3884 15.1667 50.4017 15.14C50.4817 15.0467 50.5551 15 50.6217 15C50.7017 15 50.7417 15.0467 50.7417 15.14C50.7417 15.3133 50.6417 15.5 50.4417 15.7C50.2417 15.9 50.0284 16 49.8017 16C49.5884 16 49.4151 15.9267 49.2817 15.78C49.1617 15.62 49.0484 15.4133 48.9417 15.16C48.8217 14.8533 48.7617 14.5867 48.7617 14.36C48.7617 14.1333 48.7484 13.9133 48.7217 13.7C48.6284 14.02 48.4684 14.36 48.2417 14.72C48.0284 15.08 47.7817 15.4267 47.5017 15.76C47.2351 16.08 46.9617 16.34 46.6817 16.54C46.4017 16.74 46.1551 16.84 45.9417 16.84ZM56.6566 18C56.2299 18 55.9032 17.8 55.6766 17.4C55.4499 17.0133 55.3366 16.5867 55.3366 16.12C55.3366 15.68 55.4099 15.22 55.5566 14.74C55.7032 14.26 55.8832 13.7867 56.0966 13.32C56.3232 12.8533 56.5566 12.4267 56.7966 12.04C56.5566 12.1333 56.3299 12.18 56.1166 12.18C56.0099 12.18 55.9166 12.1667 55.8366 12.14C55.7566 12.1133 55.6899 12.0933 55.6366 12.08C55.5699 12.24 55.4499 12.5067 55.2766 12.88C55.1166 13.2533 54.9432 13.6467 54.7566 14.06C54.5832 14.46 54.4299 14.8 54.2966 15.08C54.0832 15.5333 53.8966 15.76 53.7366 15.76C53.6566 15.76 53.6166 15.7067 53.6166 15.6C53.6166 15.52 53.6499 15.4133 53.7166 15.28C54.0232 14.7067 54.3099 14.14 54.5766 13.58C54.8566 13.02 55.1099 12.48 55.3366 11.96C55.3099 11.8933 55.2832 11.8067 55.2566 11.7C55.2299 11.58 55.2166 11.4533 55.2166 11.32C55.2166 11.1733 55.2299 11.02 55.2566 10.86C55.2966 10.6867 55.3499 10.52 55.4166 10.36C55.4566 10.2667 55.5299 10.1333 55.6366 9.96C55.7432 9.77333 55.8632 9.60667 55.9966 9.46C56.1299 9.3 56.2566 9.22 56.3766 9.22C56.6032 9.22 56.7166 9.34 56.7166 9.58C56.7166 9.80667 56.6432 10.0667 56.4966 10.36C56.3632 10.6533 56.2232 10.9267 56.0766 11.18C55.9299 11.42 55.8566 11.6 55.8566 11.72C55.8566 11.8267 55.9099 11.88 56.0166 11.88C56.1632 11.88 56.3432 11.8067 56.5566 11.66C56.7832 11.5 56.9632 11.3533 57.0966 11.22C57.1632 11.1533 57.2699 11.0533 57.4166 10.92C57.5632 10.7733 57.7032 10.7 57.8366 10.7C57.9699 10.7 58.0566 10.74 58.0966 10.82C58.1499 10.9 58.1766 10.9933 58.1766 11.1C58.1766 11.22 58.1232 11.3733 58.0166 11.56C57.9099 11.7333 57.7832 11.9067 57.6366 12.08C57.5032 12.2533 57.3899 12.4 57.2966 12.52C57.1099 12.8 56.8966 13.1533 56.6566 13.58C56.4166 14.0067 56.2099 14.4667 56.0366 14.96C55.8632 15.44 55.7766 15.9 55.7766 16.34C55.7766 16.6333 55.8499 16.94 55.9966 17.26C56.1432 17.58 56.3432 17.74 56.5966 17.74C56.8232 17.74 57.0632 17.62 57.3166 17.38C57.5832 17.14 57.8299 16.8533 58.0566 16.52C58.2966 16.1867 58.5032 15.8667 58.6766 15.56C58.8632 15.2533 58.9899 15.04 59.0566 14.92C59.0832 14.8533 59.1299 14.7733 59.1966 14.68C59.2632 14.5733 59.3432 14.52 59.4366 14.52C59.5166 14.52 59.5566 14.56 59.5566 14.64C59.5566 14.7067 59.5366 14.7867 59.4966 14.88C59.4699 14.96 59.4432 15.0333 59.4166 15.1C59.2966 15.38 59.1499 15.6733 58.9766 15.98C58.8032 16.2867 58.6832 16.4933 58.6166 16.6C58.4299 16.9067 58.1499 17.2133 57.7766 17.52C57.4166 17.84 57.0432 18 56.6566 18Z" fill="white"/>
<path d="M3.54 39.22C3.31333 39.22 3.2 39.0933 3.2 38.84C3.2 38.8 3.21333 38.7267 3.24 38.62C3.54667 37.4333 4.08 36.3133 4.84 35.26C5.61333 34.2067 6.52 33.2 7.56 32.24C8.6 31.28 9.7 30.3333 10.86 29.4C12.0333 28.4667 13.1733 27.5267 14.28 26.58C14.1067 26.6333 13.9133 26.68 13.7 26.72C13.5 26.76 13.28 26.8067 13.04 26.86C12.88 26.8867 12.6067 26.9267 12.22 26.98C11.8333 27.0333 11.38 27.08 10.86 27.12C10.34 27.16 9.8 27.18 9.24 27.18C8.58667 27.18 7.94 27.14 7.3 27.06C6.67333 26.9667 6.14 26.8133 5.7 26.6C5.26 26.3733 4.98667 26.0667 4.88 25.68C4.86667 25.6267 4.85333 25.58 4.84 25.54C4.84 25.5 4.84 25.4533 4.84 25.4C4.84 25.08 4.96 24.8067 5.2 24.58C5.44 24.3533 5.63333 24.2267 5.78 24.2C5.84667 24.1867 5.9 24.18 5.94 24.18C5.98 24.1667 6.02 24.16 6.06 24.16C6.18 24.16 6.21333 24.2133 6.16 24.32C6.10667 24.4133 5.96667 24.5733 5.74 24.8C5.48667 25.0533 5.36 25.28 5.36 25.48C5.36 25.6933 5.50667 25.8667 5.8 26C6.09333 26.1333 6.48667 26.2333 6.98 26.3C7.47333 26.3533 8.02 26.38 8.62 26.38C9.26 26.38 9.91333 26.3533 10.58 26.3C11.26 26.2467 11.9133 26.18 12.54 26.1C13.1667 26.02 13.7133 25.9333 14.18 25.84C14.6467 25.7333 14.9867 25.6333 15.2 25.54C15.3333 25.4733 15.48 25.5267 15.64 25.7C15.8 25.8733 15.88 26.0867 15.88 26.34C15.88 26.4733 15.84 26.62 15.76 26.78C15.68 26.9267 15.5333 27.06 15.32 27.18C14.56 27.6333 13.7467 28.1267 12.88 28.66C12.0133 29.1933 11.1467 29.7867 10.28 30.44C9.41333 31.0933 8.58667 31.82 7.8 32.62C7.01333 33.4067 6.31333 34.2867 5.7 35.26C5.08667 36.22 4.60667 37.28 4.26 38.44C4.64667 38.2 5.15333 37.9267 5.78 37.62C6.40667 37.3133 7.08667 37.02 7.82 36.74C8.56667 36.4467 9.32 36.2067 10.08 36.02C10.84 35.8333 11.5467 35.74 12.2 35.74C12.92 35.74 13.4467 35.8333 13.78 36.02C14.1267 36.1933 14.3533 36.4067 14.46 36.66C14.5667 36.9133 14.62 37.1667 14.62 37.42C14.62 37.4867 14.6133 37.5533 14.6 37.62C14.6 37.6867 14.6 37.7533 14.6 37.82C14.5867 38.0333 14.5067 38.2133 14.36 38.36C14.2133 38.5067 14.0867 38.58 13.98 38.58C13.9267 38.58 13.9 38.5467 13.9 38.48C13.9 38.4133 13.9333 38.32 14 38.2C14.12 38 14.18 37.82 14.18 37.66C14.18 37.38 14.0067 37.18 13.66 37.06C13.3133 36.94 12.8533 36.88 12.28 36.88C11.6933 36.88 11.0333 36.9333 10.3 37.04C9.56667 37.1467 8.82 37.3 8.06 37.5C7.3 37.6867 6.58 37.8933 5.9 38.12C5.22 38.36 4.64667 38.6133 4.18 38.88C3.98 39.1067 3.76667 39.22 3.54 39.22ZM18.9286 37.84C18.6886 37.84 18.5153 37.74 18.4086 37.54C18.3019 37.3267 18.2486 37.08 18.2486 36.8C18.2486 36.44 18.3086 36.02 18.4286 35.54C18.5619 35.06 18.7353 34.5667 18.9486 34.06C19.1619 33.54 19.4019 33.0667 19.6686 32.64C19.9486 32.2 20.2419 31.8467 20.5486 31.58C20.8553 31.3 21.1553 31.16 21.4486 31.16C21.7153 31.16 21.9419 31.28 22.1286 31.52C22.3286 31.7467 22.4286 32.0067 22.4286 32.3C22.4286 32.4733 22.4019 32.62 22.3486 32.74C22.2953 32.8467 22.2353 32.9 22.1686 32.9C22.1153 32.9 22.0686 32.86 22.0286 32.78C21.8953 32.4733 21.7486 32.2533 21.5886 32.12C21.4419 31.9867 21.2886 31.92 21.1286 31.92C20.8619 31.92 20.5953 32.0733 20.3286 32.38C20.0753 32.6733 19.8686 33.0133 19.7086 33.4C19.5753 33.6933 19.4486 34.0467 19.3286 34.46C19.2219 34.86 19.1286 35.26 19.0486 35.66C18.9819 36.0467 18.9486 36.3667 18.9486 36.62C18.9486 37.0733 19.0553 37.3 19.2686 37.3C19.5353 37.3 19.8753 37.0067 20.2886 36.42C20.5953 35.9933 20.8686 35.5 21.1086 34.94C21.3619 34.38 21.5753 33.8933 21.7486 33.48C21.8153 33.3467 21.8886 33.26 21.9686 33.22C22.0486 33.18 22.1219 33.16 22.1886 33.16C22.3486 33.16 22.4486 33.2267 22.4886 33.36C22.5419 33.4933 22.5686 33.6067 22.5686 33.7C22.5686 34.0467 22.5353 34.36 22.4686 34.64C22.4019 34.9067 22.3686 35.2333 22.3686 35.62C22.3686 35.9 22.3886 36.16 22.4286 36.4C22.4819 36.6267 22.5686 36.74 22.6886 36.74C22.8353 36.74 23.0219 36.5533 23.2486 36.18C23.3019 36.0733 23.3819 36.02 23.4886 36.02C23.6086 36.02 23.6686 36.08 23.6686 36.2C23.6686 36.3733 23.5486 36.56 23.3086 36.76C23.0686 36.9467 22.8286 37.04 22.5886 37.04C22.2686 37.04 22.0419 36.9067 21.9086 36.64C21.6819 36.2 21.5686 35.8067 21.5686 35.46C21.5686 35.1 21.5619 34.8533 21.5486 34.72C21.4819 34.88 21.3553 35.1333 21.1686 35.48C20.9819 35.8133 20.7619 36.1667 20.5086 36.54C20.2553 36.9 19.9886 37.2067 19.7086 37.46C19.4286 37.7133 19.1686 37.84 18.9286 37.84ZM27.8625 38.4C27.5292 38.4 27.2358 38.28 26.9825 38.04C26.7425 37.8133 26.6225 37.42 26.6225 36.86C26.6225 36.5667 26.6825 36.2067 26.8025 35.78C26.9225 35.34 27.0825 34.88 27.2825 34.4C27.4958 33.92 27.7358 33.4733 28.0025 33.06C28.2692 32.6467 28.5492 32.3067 28.8425 32.04C29.1358 31.7733 29.4225 31.64 29.7025 31.64C29.9292 31.64 30.0892 31.72 30.1825 31.88C30.2892 32.04 30.3425 32.2133 30.3425 32.4C30.3425 32.56 30.3092 32.7067 30.2425 32.84C30.1892 32.96 30.1092 33.02 30.0025 33.02C29.8958 33.02 29.8158 32.9733 29.7625 32.88C29.7225 32.7733 29.6825 32.6733 29.6425 32.58C29.6158 32.4733 29.5425 32.42 29.4225 32.42C29.1825 32.42 28.9425 32.58 28.7025 32.9C28.4625 33.2067 28.2425 33.6 28.0425 34.08C27.8425 34.56 27.6825 35.0533 27.5625 35.56C27.4425 36.0667 27.3825 36.5133 27.3825 36.9C27.3825 37.2333 27.4225 37.48 27.5025 37.64C27.5958 37.7867 27.7625 37.86 28.0025 37.86C28.3092 37.86 28.6025 37.7733 28.8825 37.6C29.1758 37.4133 29.4425 37.1867 29.6825 36.92C29.9225 36.6533 30.1225 36.4 30.2825 36.16C30.4558 35.92 30.5758 35.74 30.6425 35.62C30.8025 35.3133 30.9292 35.16 31.0225 35.16C31.0625 35.16 31.0825 35.2133 31.0825 35.32C31.0825 35.4533 31.0558 35.5867 31.0025 35.72C30.9492 35.84 30.8958 35.9533 30.8425 36.06C30.6558 36.46 30.4025 36.84 30.0825 37.2C29.7625 37.5467 29.4092 37.8333 29.0225 38.06C28.6492 38.2867 28.2625 38.4 27.8625 38.4ZM36.1148 41.72C35.9415 41.72 35.7948 41.68 35.6748 41.6C35.3548 41.3733 35.1948 40.9933 35.1948 40.46C35.1948 40.06 35.2682 39.6 35.4148 39.08C35.5748 38.5733 35.7682 38.0533 35.9948 37.52C36.2215 36.9733 36.4548 36.4467 36.6948 35.94C36.9482 35.4333 37.1682 34.98 37.3548 34.58C37.5548 34.18 37.6882 33.8733 37.7548 33.66C37.8348 33.42 37.8748 33.24 37.8748 33.12C37.8748 32.9867 37.8282 32.92 37.7348 32.92C37.6282 32.92 37.4682 33.0067 37.2548 33.18C37.0548 33.34 36.8548 33.52 36.6548 33.72C36.4682 33.92 36.3348 34.0667 36.2548 34.16C35.8282 34.64 35.4415 35.1733 35.0948 35.76C34.7615 36.3467 34.5548 36.8467 34.4748 37.26C34.4615 37.3267 34.4348 37.4467 34.3948 37.62C34.3682 37.7933 34.3082 37.8733 34.2148 37.86C34.0815 37.8333 33.9882 37.7533 33.9348 37.62C33.8948 37.4733 33.8682 37.34 33.8548 37.22C33.8548 37.1533 33.8482 37.0867 33.8348 37.02C33.8348 36.94 33.8348 36.86 33.8348 36.78C33.8348 36.2333 33.8882 35.6133 33.9948 34.92C34.1015 34.2267 34.2415 33.52 34.4148 32.8C34.3882 32.8133 34.3282 32.8267 34.2348 32.84C34.1415 32.8533 34.0548 32.86 33.9748 32.86C33.7615 32.86 33.6548 32.8 33.6548 32.68C33.6548 32.6267 33.7015 32.5933 33.7948 32.58C33.8615 32.5667 33.9882 32.54 34.1748 32.5C34.3615 32.4467 34.4815 32.4067 34.5348 32.38C34.6415 31.9133 34.7615 31.46 34.8948 31.02C35.0415 30.58 35.1815 30.1533 35.3148 29.74C35.7015 28.6867 36.1148 27.7533 36.5548 26.94C37.0082 26.1133 37.6615 25.4533 38.5148 24.96C38.9415 24.72 39.3482 24.6 39.7348 24.6C40.1482 24.6 40.4882 24.7333 40.7548 25C41.0348 25.2667 41.1748 25.6533 41.1748 26.16C41.1748 26.8 41.0148 27.3733 40.6948 27.88C40.3748 28.3733 40.0215 28.8533 39.6348 29.32C39.3148 29.7067 38.9415 30.0733 38.5148 30.42C38.1015 30.7533 37.6815 31.06 37.2548 31.34C36.8815 31.58 36.5082 31.8067 36.1348 32.02C35.7748 32.22 35.4015 32.4 35.0148 32.56C34.8415 33.1467 34.6882 33.7533 34.5548 34.38C34.4348 35.0067 34.3482 35.64 34.2948 36.28C34.2948 36.2933 34.2882 36.36 34.2748 36.48C34.2615 36.5867 34.2482 36.7 34.2348 36.82C34.2348 36.9267 34.2348 36.9867 34.2348 37H34.2548C34.2815 36.84 34.3282 36.6867 34.3948 36.54C34.4748 36.3933 34.5548 36.2533 34.6348 36.12C34.9015 35.5733 35.2482 35.0133 35.6748 34.44C36.1015 33.8667 36.5348 33.3933 36.9748 33.02C37.0948 32.9133 37.2682 32.8067 37.4948 32.7C37.7348 32.58 37.9615 32.52 38.1748 32.52C38.3215 32.52 38.4482 32.56 38.5548 32.64C38.6615 32.72 38.7148 32.8733 38.7148 33.1C38.7148 33.14 38.7148 33.18 38.7148 33.22C38.7148 33.26 38.7082 33.3067 38.6948 33.36C38.6415 33.7467 38.4348 34.22 38.0748 34.78C37.7148 35.3267 37.3482 35.9133 36.9748 36.54C36.6682 37.06 36.3882 37.6067 36.1348 38.18C35.8948 38.7667 35.7748 39.3733 35.7748 40C35.7748 40.2 35.7948 40.4133 35.8348 40.64C35.8882 40.9333 35.9615 41.1333 36.0548 41.24C36.1615 41.3467 36.2682 41.4 36.3748 41.4C36.4815 41.4 36.5815 41.3667 36.6748 41.3C36.7815 41.2333 36.8682 41.1733 36.9348 41.12C36.9615 41.0933 37.0015 41.0533 37.0548 41C37.1082 40.96 37.1548 40.94 37.1948 40.94C37.2482 40.94 37.2548 40.9933 37.2148 41.1C37.2015 41.1533 37.1548 41.2067 37.0748 41.26C37.0082 41.3267 36.9615 41.3733 36.9348 41.4C36.6815 41.6133 36.4082 41.72 36.1148 41.72ZM35.1548 32.12C35.9415 31.7733 36.6882 31.3467 37.3948 30.84C38.1148 30.3333 38.7615 29.7533 39.3348 29.1C39.6415 28.7533 39.9348 28.3667 40.2148 27.94C40.5082 27.5133 40.6882 27.0733 40.7548 26.62C40.7682 26.5133 40.7615 26.34 40.7348 26.1C40.7082 25.86 40.6282 25.64 40.4948 25.44C40.3748 25.2267 40.1615 25.12 39.8548 25.12C39.7215 25.12 39.5682 25.1467 39.3948 25.2C39.2215 25.2533 39.0215 25.3533 38.7948 25.5C38.5015 25.6733 38.2348 25.8933 37.9948 26.16C37.7682 26.4267 37.5548 26.72 37.3548 27.04C37.0748 27.5067 36.8348 27.9467 36.6348 28.36C36.4348 28.7733 36.2282 29.24 36.0148 29.76C35.8682 30.1067 35.7215 30.48 35.5748 30.88C35.4282 31.28 35.2882 31.6933 35.1548 32.12ZM42.7223 37.84C42.4823 37.84 42.309 37.74 42.2023 37.54C42.0957 37.3267 42.0423 37.08 42.0423 36.8C42.0423 36.44 42.1023 36.02 42.2223 35.54C42.3557 35.06 42.529 34.5667 42.7423 34.06C42.9557 33.54 43.1957 33.0667 43.4623 32.64C43.7423 32.2 44.0357 31.8467 44.3423 31.58C44.649 31.3 44.949 31.16 45.2423 31.16C45.509 31.16 45.7357 31.28 45.9223 31.52C46.1223 31.7467 46.2223 32.0067 46.2223 32.3C46.2223 32.4733 46.1957 32.62 46.1423 32.74C46.089 32.8467 46.029 32.9 45.9623 32.9C45.909 32.9 45.8623 32.86 45.8223 32.78C45.689 32.4733 45.5423 32.2533 45.3823 32.12C45.2357 31.9867 45.0823 31.92 44.9223 31.92C44.6557 31.92 44.389 32.0733 44.1223 32.38C43.869 32.6733 43.6623 33.0133 43.5023 33.4C43.369 33.6933 43.2423 34.0467 43.1223 34.46C43.0157 34.86 42.9223 35.26 42.8423 35.66C42.7757 36.0467 42.7423 36.3667 42.7423 36.62C42.7423 37.0733 42.849 37.3 43.0623 37.3C43.329 37.3 43.669 37.0067 44.0823 36.42C44.389 35.9933 44.6623 35.5 44.9023 34.94C45.1557 34.38 45.369 33.8933 45.5423 33.48C45.609 33.3467 45.6823 33.26 45.7623 33.22C45.8423 33.18 45.9157 33.16 45.9823 33.16C46.1423 33.16 46.2423 33.2267 46.2823 33.36C46.3357 33.4933 46.3623 33.6067 46.3623 33.7C46.3623 34.0467 46.329 34.36 46.2623 34.64C46.1957 34.9067 46.1623 35.2333 46.1623 35.62C46.1623 35.9 46.1823 36.16 46.2223 36.4C46.2757 36.6267 46.3623 36.74 46.4823 36.74C46.629 36.74 46.8157 36.5533 47.0423 36.18C47.0957 36.0733 47.1757 36.02 47.2823 36.02C47.4023 36.02 47.4623 36.08 47.4623 36.2C47.4623 36.3733 47.3423 36.56 47.1023 36.76C46.8623 36.9467 46.6223 37.04 46.3823 37.04C46.0623 37.04 45.8357 36.9067 45.7023 36.64C45.4757 36.2 45.3623 35.8067 45.3623 35.46C45.3623 35.1 45.3557 34.8533 45.3423 34.72C45.2757 34.88 45.149 35.1333 44.9623 35.48C44.7757 35.8133 44.5557 36.1667 44.3023 36.54C44.049 36.9 43.7823 37.2067 43.5023 37.46C43.2223 37.7133 42.9623 37.84 42.7223 37.84ZM53.3363 39C52.9096 39 52.5829 38.8 52.3563 38.4C52.1296 38.0133 52.0163 37.5867 52.0163 37.12C52.0163 36.68 52.0896 36.22 52.2363 35.74C52.3829 35.26 52.5629 34.7867 52.7763 34.32C53.0029 33.8533 53.2363 33.4267 53.4763 33.04C53.2363 33.1333 53.0096 33.18 52.7962 33.18C52.6896 33.18 52.5963 33.1667 52.5163 33.14C52.4363 33.1133 52.3696 33.0933 52.3163 33.08C52.2496 33.24 52.1296 33.5067 51.9563 33.88C51.7963 34.2533 51.6229 34.6467 51.4363 35.06C51.2629 35.46 51.1096 35.8 50.9763 36.08C50.7629 36.5333 50.5763 36.76 50.4163 36.76C50.3363 36.76 50.2963 36.7067 50.2963 36.6C50.2963 36.52 50.3296 36.4133 50.3963 36.28C50.7029 35.7067 50.9896 35.14 51.2563 34.58C51.5363 34.02 51.7896 33.48 52.0163 32.96C51.9896 32.8933 51.9629 32.8067 51.9363 32.7C51.9096 32.58 51.8963 32.4533 51.8963 32.32C51.8963 32.1733 51.9096 32.02 51.9363 31.86C51.9763 31.6867 52.0296 31.52 52.0963 31.36C52.1363 31.2667 52.2096 31.1333 52.3163 30.96C52.4229 30.7733 52.5429 30.6067 52.6763 30.46C52.8096 30.3 52.9363 30.22 53.0563 30.22C53.2829 30.22 53.3963 30.34 53.3963 30.58C53.3963 30.8067 53.3229 31.0667 53.1763 31.36C53.0429 31.6533 52.9029 31.9267 52.7563 32.18C52.6096 32.42 52.5363 32.6 52.5363 32.72C52.5363 32.8267 52.5896 32.88 52.6963 32.88C52.8429 32.88 53.0229 32.8067 53.2363 32.66C53.4629 32.5 53.6429 32.3533 53.7763 32.22C53.8429 32.1533 53.9496 32.0533 54.0963 31.92C54.2429 31.7733 54.3829 31.7 54.5163 31.7C54.6496 31.7 54.7363 31.74 54.7763 31.82C54.8296 31.9 54.8563 31.9933 54.8563 32.1C54.8563 32.22 54.8029 32.3733 54.6963 32.56C54.5896 32.7333 54.4629 32.9067 54.3163 33.08C54.1829 33.2533 54.0696 33.4 53.9763 33.52C53.7896 33.8 53.5763 34.1533 53.3363 34.58C53.0963 35.0067 52.8896 35.4667 52.7163 35.96C52.5429 36.44 52.4563 36.9 52.4563 37.34C52.4563 37.6333 52.5296 37.94 52.6763 38.26C52.8229 38.58 53.0229 38.74 53.2763 38.74C53.5029 38.74 53.7429 38.62 53.9963 38.38C54.2629 38.14 54.5096 37.8533 54.7363 37.52C54.9763 37.1867 55.1829 36.8667 55.3563 36.56C55.5429 36.2533 55.6696 36.04 55.7363 35.92C55.7629 35.8533 55.8096 35.7733 55.8763 35.68C55.9429 35.5733 56.0229 35.52 56.1163 35.52C56.1963 35.52 56.2363 35.56 56.2363 35.64C56.2363 35.7067 56.2163 35.7867 56.1763 35.88C56.1496 35.96 56.1229 36.0333 56.0963 36.1C55.9763 36.38 55.8296 36.6733 55.6563 36.98C55.4829 37.2867 55.3629 37.4933 55.2962 37.6C55.1096 37.9067 54.8296 38.2133 54.4563 38.52C54.0963 38.84 53.7229 39 53.3363 39ZM59.393 45.86C58.873 45.86 58.453 45.72 58.133 45.44C57.813 45.1733 57.653 44.8133 57.653 44.36C57.653 43.96 57.7663 43.56 57.993 43.16C58.2063 42.7733 58.473 42.4 58.793 42.04C59.1263 41.6933 59.4596 41.3867 59.793 41.12C60.3796 40.6533 61.073 40.2133 61.873 39.8C62.6863 39.3867 63.5996 39.0733 64.613 38.86C64.6263 38.7133 64.633 38.56 64.633 38.4C64.633 38.2533 64.633 38.1067 64.633 37.96C64.633 36.88 64.5596 35.9 64.413 35.02C64.2663 34.1267 64.0996 33.36 63.913 32.72C63.3796 34.04 62.9063 35.14 62.493 36.02C62.0796 36.8867 61.853 37.6133 61.813 38.2C61.7996 38.2933 61.7396 38.3933 61.633 38.5C61.5396 38.62 61.433 38.68 61.313 38.68C61.233 38.68 61.153 38.6333 61.073 38.54C61.0063 38.46 60.9596 38.3133 60.933 38.1C60.933 38.0467 60.9263 37.9733 60.913 37.88C60.913 37.7867 60.913 37.62 60.913 37.38C60.913 37.14 60.913 36.78 60.913 36.3C60.913 35.8733 60.8996 35.44 60.873 35C60.8596 34.5467 60.813 34.1267 60.733 33.74C60.653 33.3533 60.533 33.04 60.373 32.8C60.2263 32.56 60.0196 32.44 59.753 32.44C59.5396 32.44 59.3396 32.52 59.153 32.68C58.9796 32.84 58.833 33 58.713 33.16C58.593 33.3067 58.4996 33.38 58.433 33.38C58.3796 33.38 58.353 33.36 58.353 33.32C58.353 33.2933 58.373 33.2533 58.413 33.2C58.4396 33.1333 58.4663 33.08 58.493 33.04C58.613 32.8667 58.7663 32.6933 58.953 32.52C59.153 32.3467 59.3596 32.2 59.573 32.08C59.7996 31.9467 59.9996 31.88 60.173 31.88C60.533 31.88 60.813 32.0667 61.013 32.44C61.213 32.8 61.353 33.26 61.433 33.82C61.5263 34.38 61.573 34.9533 61.573 35.54C61.573 35.7933 61.5596 36.1 61.533 36.46C61.5063 36.82 61.473 37.1267 61.433 37.38C61.6996 36.8867 62.0396 36.2 62.453 35.32C62.8663 34.44 63.3196 33.4467 63.813 32.34L63.633 31.82V31.76C63.633 31.6267 63.673 31.5267 63.753 31.46C63.8463 31.3933 63.9396 31.36 64.033 31.36C64.113 31.36 64.193 31.38 64.273 31.42C64.353 31.46 64.4063 31.52 64.433 31.6C64.593 31.96 64.7263 32.4533 64.833 33.08C64.953 33.7067 65.0396 34.3867 65.093 35.12C65.1596 35.84 65.193 36.5533 65.193 37.26C65.193 37.7933 65.173 38.2933 65.133 38.76C65.4663 38.6933 65.8196 38.64 66.193 38.6C66.5796 38.56 66.913 38.54 67.193 38.54C67.3663 38.54 67.453 38.5667 67.453 38.62C67.453 38.7267 67.313 38.7933 67.033 38.82C66.713 38.8467 66.3863 38.88 66.053 38.92C65.733 38.9733 65.4063 39.04 65.073 39.12C64.793 40.6533 64.353 41.88 63.753 42.8C63.1663 43.7333 62.5596 44.4333 61.933 44.9C61.4796 45.2333 61.033 45.4733 60.593 45.62C60.1663 45.78 59.7663 45.86 59.393 45.86ZM59.233 45.44C59.4596 45.44 59.7196 45.3933 60.013 45.3C60.3196 45.2067 60.6396 45.06 60.973 44.86C62.0396 44.2333 62.8663 43.44 63.453 42.48C64.0396 41.5333 64.413 40.4533 64.573 39.24C63.7863 39.4533 62.993 39.76 62.193 40.16C61.4063 40.5733 60.6863 41.0533 60.033 41.6C59.7396 41.8533 59.4463 42.14 59.153 42.46C58.873 42.78 58.6396 43.1067 58.453 43.44C58.2663 43.7867 58.173 44.12 58.173 44.44C58.173 44.7467 58.2663 44.9867 58.453 45.16C58.6396 45.3467 58.8996 45.44 59.233 45.44Z" fill="white"/>
</svg>
