<svg width="67" height="34" viewBox="0 0 67 34" fill="none" xmlns="http://www.w3.org/2000/svg">
<rect x="1.08105" y="0.5" width="65.4186" height="33" rx="7.5" fill="#D9D9D9" stroke="black"/>
<rect x="1.5" y="0.5" width="60.6744" height="30" rx="7.5" fill="#D9D9D9" stroke="black"/>
<path d="M6.76136 8.45455H8.86364L13.8068 20.5284H13.9773L18.9205 8.45455H21.0227V23H19.375V11.9489H19.233L14.6875 23H13.0966L8.55114 11.9489H8.40909V23H6.76136V8.45455ZM28.9009 23.2273C27.8498 23.2273 26.9431 22.9953 26.1808 22.5312C25.4232 22.0625 24.8384 21.4091 24.4265 20.571C24.0193 19.7282 23.8157 18.7481 23.8157 17.6307C23.8157 16.5133 24.0193 15.5284 24.4265 14.6761C24.8384 13.8191 25.4113 13.1515 26.1452 12.6733C26.8839 12.1903 27.7456 11.9489 28.7305 11.9489C29.2987 11.9489 29.8597 12.0436 30.4137 12.233C30.9677 12.4223 31.4719 12.7301 31.9265 13.1562C32.381 13.5777 32.7433 14.1364 33.0131 14.8324C33.283 15.5284 33.418 16.3854 33.418 17.4034V18.1136H25.0089V16.6648H31.7134C31.7134 16.0492 31.5903 15.5 31.3441 15.017C31.1026 14.5341 30.757 14.1529 30.3072 13.8736C29.8621 13.5942 29.3365 13.4545 28.7305 13.4545C28.0629 13.4545 27.4852 13.6203 26.9975 13.9517C26.5146 14.2784 26.1429 14.7045 25.8825 15.2301C25.622 15.7557 25.4918 16.3191 25.4918 16.9205V17.8864C25.4918 18.7102 25.6339 19.4086 25.918 19.9815C26.2068 20.5497 26.6069 20.983 27.1183 21.2812C27.6296 21.5748 28.2238 21.7216 28.9009 21.7216C29.3413 21.7216 29.739 21.66 30.0941 21.5369C30.454 21.4091 30.7641 21.2197 31.0245 20.9688C31.2849 20.7131 31.4862 20.3958 31.6282 20.017L33.2475 20.4716C33.0771 21.0208 32.7906 21.5038 32.3881 21.9205C31.9857 22.3324 31.4885 22.6544 30.8967 22.8864C30.3048 23.1136 29.6396 23.2273 28.9009 23.2273ZM37.6438 16.4375V23H35.9677V12.0909H37.587V13.7955H37.729C37.9847 13.2415 38.373 12.7964 38.8938 12.4602C39.4147 12.1193 40.087 11.9489 40.9109 11.9489C41.6495 11.9489 42.2958 12.1004 42.8498 12.4034C43.4038 12.7017 43.8346 13.1562 44.1424 13.767C44.4502 14.3731 44.604 15.1402 44.604 16.0682V23H42.9279V16.1818C42.9279 15.3248 42.7054 14.6572 42.2603 14.179C41.8152 13.696 41.2044 13.4545 40.4279 13.4545C39.8929 13.4545 39.4147 13.5705 38.9933 13.8026C38.5766 14.0346 38.2475 14.3731 38.006 14.8182C37.7646 15.2633 37.6438 15.803 37.6438 16.4375ZM54.5419 18.5398V12.0909H56.218V23H54.5419V21.1534H54.4283C54.1726 21.7074 53.7749 22.1785 53.2351 22.5668C52.6953 22.9503 52.0135 23.142 51.1896 23.142C50.5078 23.142 49.9018 22.9929 49.3714 22.6946C48.8411 22.3916 48.4245 21.937 48.1214 21.331C47.8184 20.7202 47.6669 19.9508 47.6669 19.0227V12.0909H49.343V18.9091C49.343 19.7045 49.5656 20.339 50.0107 20.8125C50.4605 21.286 51.0334 21.5227 51.7294 21.5227C52.1461 21.5227 52.5698 21.4162 53.0007 21.2031C53.4363 20.9901 53.8009 20.6634 54.0945 20.223C54.3928 19.7827 54.5419 19.2216 54.5419 18.5398Z" fill="black"/>
</svg>
