<svg width="68" height="35" viewBox="0 0 68 35" fill="none" xmlns="http://www.w3.org/2000/svg">
<rect x="2.08105" y="1.5" width="65.4186" height="33" rx="7.5" fill="#D9D9D9" stroke="black"/>
<rect x="0.5" y="0.5" width="60.6744" height="30" rx="7.5" fill="#D9D9D9" stroke="black"/>
<path d="M5.76136 8.45455H7.86364L12.8068 20.5284H12.9773L17.9205 8.45455H20.0227V23H18.375V11.9489H18.233L13.6875 23H12.0966L7.55114 11.9489H7.40909V23H5.76136V8.45455ZM27.9009 23.2273C26.8498 23.2273 25.9431 22.9953 25.1808 22.5312C24.4232 22.0625 23.8384 21.4091 23.4265 20.571C23.0193 19.7282 22.8157 18.7481 22.8157 17.6307C22.8157 16.5133 23.0193 15.5284 23.4265 14.6761C23.8384 13.8191 24.4113 13.1515 25.1452 12.6733C25.8839 12.1903 26.7456 11.9489 27.7305 11.9489C28.2987 11.9489 28.8597 12.0436 29.4137 12.233C29.9677 12.4223 30.4719 12.7301 30.9265 13.1562C31.381 13.5777 31.7433 14.1364 32.0131 14.8324C32.283 15.5284 32.418 16.3854 32.418 17.4034V18.1136H24.0089V16.6648H30.7134C30.7134 16.0492 30.5903 15.5 30.3441 15.017C30.1026 14.5341 29.757 14.1529 29.3072 13.8736C28.8621 13.5942 28.3365 13.4545 27.7305 13.4545C27.0629 13.4545 26.4852 13.6203 25.9975 13.9517C25.5146 14.2784 25.1429 14.7045 24.8825 15.2301C24.622 15.7557 24.4918 16.3191 24.4918 16.9205V17.8864C24.4918 18.7102 24.6339 19.4086 24.918 19.9815C25.2068 20.5497 25.6069 20.983 26.1183 21.2812C26.6296 21.5748 27.2238 21.7216 27.9009 21.7216C28.3413 21.7216 28.739 21.66 29.0941 21.5369C29.454 21.4091 29.7641 21.2197 30.0245 20.9688C30.2849 20.7131 30.4862 20.3958 30.6282 20.017L32.2475 20.4716C32.0771 21.0208 31.7906 21.5038 31.3881 21.9205C30.9857 22.3324 30.4885 22.6544 29.8967 22.8864C29.3048 23.1136 28.6396 23.2273 27.9009 23.2273ZM36.6438 16.4375V23H34.9677V12.0909H36.587V13.7955H36.729C36.9847 13.2415 37.373 12.7964 37.8938 12.4602C38.4147 12.1193 39.087 11.9489 39.9109 11.9489C40.6495 11.9489 41.2958 12.1004 41.8498 12.4034C42.4038 12.7017 42.8346 13.1562 43.1424 13.767C43.4502 14.3731 43.604 15.1402 43.604 16.0682V23H41.9279V16.1818C41.9279 15.3248 41.7054 14.6572 41.2603 14.179C40.8152 13.696 40.2044 13.4545 39.4279 13.4545C38.8929 13.4545 38.4147 13.5705 37.9933 13.8026C37.5766 14.0346 37.2475 14.3731 37.006 14.8182C36.7646 15.2633 36.6438 15.803 36.6438 16.4375ZM53.5419 18.5398V12.0909H55.218V23H53.5419V21.1534H53.4283C53.1726 21.7074 52.7749 22.1785 52.2351 22.5668C51.6953 22.9503 51.0135 23.142 50.1896 23.142C49.5078 23.142 48.9018 22.9929 48.3714 22.6946C47.8411 22.3916 47.4245 21.937 47.1214 21.331C46.8184 20.7202 46.6669 19.9508 46.6669 19.0227V12.0909H48.343V18.9091C48.343 19.7045 48.5656 20.339 49.0107 20.8125C49.4605 21.286 50.0334 21.5227 50.7294 21.5227C51.1461 21.5227 51.5698 21.4162 52.0007 21.2031C52.4363 20.9901 52.8009 20.6634 53.0945 20.223C53.3928 19.7827 53.5419 19.2216 53.5419 18.5398Z" fill="black"/>
</svg>
