<svg width="42" height="34" viewBox="0 0 42 34" fill="none" xmlns="http://www.w3.org/2000/svg">
<rect x="0.5" y="0.5" width="41" height="33" rx="7.5" fill="#D9D9D9" stroke="#D9D9D9"/>
<path d="M21.0455 19.4545H22.9773L24.5966 21.5852L25.0227 22.1534L27.4375 25.3636H25.5057L23.9148 23.233L23.517 22.6932L21.0455 19.4545ZM28.0341 16.7273C28.0341 18.2614 27.7571 19.5871 27.2031 20.7045C26.6491 21.822 25.8892 22.6837 24.9233 23.2898C23.9574 23.8958 22.8542 24.1989 21.6136 24.1989C20.3731 24.1989 19.2699 23.8958 18.304 23.2898C17.3381 22.6837 16.5781 21.822 16.0241 20.7045C15.4702 19.5871 15.1932 18.2614 15.1932 16.7273C15.1932 15.1932 15.4702 13.8674 16.0241 12.75C16.5781 11.6326 17.3381 10.7708 18.304 10.1648C19.2699 9.55871 20.3731 9.25568 21.6136 9.25568C22.8542 9.25568 23.9574 9.55871 24.9233 10.1648C25.8892 10.7708 26.6491 11.6326 27.2031 12.75C27.7571 13.8674 28.0341 15.1932 28.0341 16.7273ZM26.3295 16.7273C26.3295 15.4678 26.1188 14.4048 25.6974 13.5384C25.2808 12.6719 24.715 12.0161 24 11.571C23.2898 11.1259 22.4943 10.9034 21.6136 10.9034C20.733 10.9034 19.9351 11.1259 19.2202 11.571C18.5099 12.0161 17.9441 12.6719 17.5227 13.5384C17.1061 14.4048 16.8977 15.4678 16.8977 16.7273C16.8977 17.9867 17.1061 19.0497 17.5227 19.9162C17.9441 20.7827 18.5099 21.4384 19.2202 21.8835C19.9351 22.3286 20.733 22.5511 21.6136 22.5511C22.4943 22.5511 23.2898 22.3286 24 21.8835C24.715 21.4384 25.2808 20.7827 25.6974 19.9162C26.1188 19.0497 26.3295 17.9867 26.3295 16.7273Z" fill="black"/>
</svg>
