<svg width="42" height="34" viewBox="0 0 42 34" fill="none" xmlns="http://www.w3.org/2000/svg">
<rect x="0.5" y="0.5" width="41" height="33" rx="7.5" fill="#D9D9D9" stroke="#D9D9D9"/>
<path d="M23.7159 13.0909C23.6307 12.3712 23.285 11.8125 22.679 11.4148C22.0729 11.017 21.3295 10.8182 20.4489 10.8182C19.8049 10.8182 19.2415 10.9223 18.7585 11.1307C18.2803 11.339 17.9063 11.6255 17.6364 11.9901C17.3712 12.3546 17.2386 12.7689 17.2386 13.233C17.2386 13.6212 17.331 13.955 17.5156 14.2344C17.705 14.509 17.9465 14.7386 18.2401 14.9233C18.5336 15.1032 18.8414 15.2524 19.1634 15.3707C19.4853 15.4844 19.7812 15.5767 20.0511 15.6477L21.5284 16.0455C21.9072 16.1449 22.3286 16.2822 22.7926 16.4574C23.2614 16.6326 23.7088 16.8717 24.1349 17.1747C24.5658 17.473 24.9209 17.8565 25.2003 18.3253C25.4796 18.794 25.6193 19.3693 25.6193 20.0511C25.6193 20.8371 25.4134 21.5473 25.0014 22.1818C24.5942 22.8163 23.9976 23.3205 23.2116 23.6946C22.4304 24.0687 21.4811 24.2557 20.3636 24.2557C19.322 24.2557 18.42 24.0876 17.6577 23.7514C16.9001 23.4152 16.3035 22.9465 15.8679 22.3452C15.437 21.7438 15.1932 21.0455 15.1364 20.25H16.9545C17.0019 20.7992 17.1866 21.2538 17.5085 21.6136C17.8352 21.9687 18.2472 22.2339 18.7443 22.4091C19.2462 22.5795 19.786 22.6648 20.3636 22.6648C21.036 22.6648 21.6397 22.5559 22.1747 22.3381C22.7098 22.1155 23.1335 21.8078 23.446 21.4148C23.7585 21.017 23.9148 20.553 23.9148 20.0227C23.9148 19.5398 23.7798 19.1468 23.5099 18.8438C23.2401 18.5407 22.8849 18.2945 22.4446 18.1051C22.0043 17.9157 21.5284 17.75 21.017 17.608L19.2273 17.0966C18.0909 16.7699 17.1913 16.3035 16.5284 15.6974C15.8655 15.0914 15.5341 14.2983 15.5341 13.3182C15.5341 12.5038 15.7543 11.7936 16.1946 11.1875C16.6397 10.5767 17.2363 10.1032 17.9844 9.76705C18.7372 9.42614 19.5777 9.25568 20.5057 9.25568C21.4432 9.25568 22.2765 9.42377 23.0057 9.75994C23.7348 10.0914 24.3125 10.5459 24.7386 11.1236C25.1695 11.7012 25.3968 12.357 25.4205 13.0909H23.7159Z" fill="black"/>
</svg>
