<svg width="42" height="34" viewBox="0 0 42 34" fill="none" xmlns="http://www.w3.org/2000/svg">
<rect x="0.5" y="0.5" width="41" height="33" rx="7.5" fill="#D9D9D9" stroke="black"/>
<rect x="0.5" y="0.5" width="38" height="30" rx="7.5" fill="#D9D9D9" stroke="black"/>
<path d="M19.25 23H14.7614V8.45455H19.4489C20.8598 8.45455 22.0672 8.74574 23.071 9.32812C24.0748 9.90578 24.8442 10.7367 25.3793 11.821C25.9143 12.9006 26.1818 14.1932 26.1818 15.6989C26.1818 17.214 25.9119 18.5185 25.3722 19.6122C24.8324 20.7012 24.0464 21.5393 23.0142 22.1264C21.982 22.7088 20.7273 23 19.25 23ZM16.5227 21.4375H19.1364C20.339 21.4375 21.3357 21.2055 22.1264 20.7415C22.9171 20.2775 23.5066 19.617 23.8949 18.7599C24.2831 17.9029 24.4773 16.8826 24.4773 15.6989C24.4773 14.5246 24.2855 13.5137 23.902 12.6662C23.5185 11.8139 22.9455 11.1605 22.1832 10.706C21.4209 10.2467 20.4716 10.017 19.3352 10.017H16.5227V21.4375Z" fill="black"/>
</svg>
