<svg width="68" height="35" viewBox="0 0 68 35" fill="none" xmlns="http://www.w3.org/2000/svg">
<rect x="2.08105" y="1.5" width="65.4186" height="33" rx="7.5" fill="#D9D9D9" stroke="#D9D9D9"/>
<path d="M9.76136 10.4545H11.8636L16.8068 22.5284H16.9773L21.9205 10.4545H24.0227V25H22.375V13.9489H22.233L17.6875 25H16.0966L11.5511 13.9489H11.4091V25H9.76136V10.4545ZM31.9009 25.2273C30.8498 25.2273 29.9431 24.9953 29.1808 24.5312C28.4232 24.0625 27.8384 23.4091 27.4265 22.571C27.0193 21.7282 26.8157 20.7481 26.8157 19.6307C26.8157 18.5133 27.0193 17.5284 27.4265 16.6761C27.8384 15.8191 28.4113 15.1515 29.1452 14.6733C29.8839 14.1903 30.7456 13.9489 31.7305 13.9489C32.2987 13.9489 32.8597 14.0436 33.4137 14.233C33.9677 14.4223 34.4719 14.7301 34.9265 15.1562C35.381 15.5777 35.7433 16.1364 36.0131 16.8324C36.283 17.5284 36.418 18.3854 36.418 19.4034V20.1136H28.0089V18.6648H34.7134C34.7134 18.0492 34.5903 17.5 34.3441 17.017C34.1026 16.5341 33.757 16.1529 33.3072 15.8736C32.8621 15.5942 32.3365 15.4545 31.7305 15.4545C31.0629 15.4545 30.4852 15.6203 29.9975 15.9517C29.5146 16.2784 29.1429 16.7045 28.8825 17.2301C28.622 17.7557 28.4918 18.3191 28.4918 18.9205V19.8864C28.4918 20.7102 28.6339 21.4086 28.918 21.9815C29.2068 22.5497 29.6069 22.983 30.1183 23.2812C30.6296 23.5748 31.2238 23.7216 31.9009 23.7216C32.3413 23.7216 32.739 23.66 33.0941 23.5369C33.454 23.4091 33.7641 23.2197 34.0245 22.9688C34.2849 22.7131 34.4862 22.3958 34.6282 22.017L36.2475 22.4716C36.0771 23.0208 35.7906 23.5038 35.3881 23.9205C34.9857 24.3324 34.4885 24.6544 33.8967 24.8864C33.3048 25.1136 32.6396 25.2273 31.9009 25.2273ZM40.6438 18.4375V25H38.9677V14.0909H40.587V15.7955H40.729C40.9847 15.2415 41.373 14.7964 41.8938 14.4602C42.4147 14.1193 43.087 13.9489 43.9109 13.9489C44.6495 13.9489 45.2958 14.1004 45.8498 14.4034C46.4038 14.7017 46.8346 15.1562 47.1424 15.767C47.4502 16.3731 47.604 17.1402 47.604 18.0682V25H45.9279V18.1818C45.9279 17.3248 45.7054 16.6572 45.2603 16.179C44.8152 15.696 44.2044 15.4545 43.4279 15.4545C42.8929 15.4545 42.4147 15.5705 41.9933 15.8026C41.5766 16.0346 41.2475 16.3731 41.006 16.8182C40.7646 17.2633 40.6438 17.803 40.6438 18.4375ZM57.5419 20.5398V14.0909H59.218V25H57.5419V23.1534H57.4283C57.1726 23.7074 56.7749 24.1785 56.2351 24.5668C55.6953 24.9503 55.0135 25.142 54.1896 25.142C53.5078 25.142 52.9018 24.9929 52.3714 24.6946C51.8411 24.3916 51.4245 23.937 51.1214 23.331C50.8184 22.7202 50.6669 21.9508 50.6669 21.0227V14.0909H52.343V20.9091C52.343 21.7045 52.5656 22.339 53.0107 22.8125C53.4605 23.286 54.0334 23.5227 54.7294 23.5227C55.1461 23.5227 55.5698 23.4162 56.0007 23.2031C56.4363 22.9901 56.8009 22.6634 57.0945 22.223C57.3928 21.7827 57.5419 21.2216 57.5419 20.5398Z" fill="black"/>
</svg>
