<svg width="42" height="34" viewBox="0 0 42 34" fill="none" xmlns="http://www.w3.org/2000/svg">
<rect x="0.5" y="0.5" width="41" height="33" rx="7.5" fill="#D9D9D9" stroke="black"/>
<rect x="0.5" y="0.5" width="38" height="30" rx="7.5" fill="#D9D9D9" stroke="black"/>
<path d="M20.0455 18.4545H21.9773L23.5966 20.5852L24.0227 21.1534L26.4375 24.3636H24.5057L22.9148 22.233L22.517 21.6932L20.0455 18.4545ZM27.0341 15.7273C27.0341 17.2614 26.7571 18.5871 26.2031 19.7045C25.6491 20.822 24.8892 21.6837 23.9233 22.2898C22.9574 22.8958 21.8542 23.1989 20.6136 23.1989C19.3731 23.1989 18.2699 22.8958 17.304 22.2898C16.3381 21.6837 15.5781 20.822 15.0241 19.7045C14.4702 18.5871 14.1932 17.2614 14.1932 15.7273C14.1932 14.1932 14.4702 12.8674 15.0241 11.75C15.5781 10.6326 16.3381 9.77083 17.304 9.16477C18.2699 8.55871 19.3731 8.25568 20.6136 8.25568C21.8542 8.25568 22.9574 8.55871 23.9233 9.16477C24.8892 9.77083 25.6491 10.6326 26.2031 11.75C26.7571 12.8674 27.0341 14.1932 27.0341 15.7273ZM25.3295 15.7273C25.3295 14.4678 25.1188 13.4048 24.6974 12.5384C24.2808 11.6719 23.715 11.0161 23 10.571C22.2898 10.1259 21.4943 9.90341 20.6136 9.90341C19.733 9.90341 18.9351 10.1259 18.2202 10.571C17.5099 11.0161 16.9441 11.6719 16.5227 12.5384C16.1061 13.4048 15.8977 14.4678 15.8977 15.7273C15.8977 16.9867 16.1061 18.0497 16.5227 18.9162C16.9441 19.7827 17.5099 20.4384 18.2202 20.8835C18.9351 21.3286 19.733 21.5511 20.6136 21.5511C21.4943 21.5511 22.2898 21.3286 23 20.8835C23.715 20.4384 24.2808 19.7827 24.6974 18.9162C25.1188 18.0497 25.3295 16.9867 25.3295 15.7273Z" fill="black"/>
</svg>
