<svg width="42" height="34" viewBox="0 0 42 34" fill="none" xmlns="http://www.w3.org/2000/svg">
<rect x="0.5" y="0.5" width="41" height="33" rx="7.5" fill="#D9D9D9" stroke="black"/>
<rect x="0.5" y="0.5" width="38" height="30" rx="7.5" fill="#D9D9D9" stroke="black"/>
<path d="M22.7159 12.0909C22.6307 11.3712 22.285 10.8125 21.679 10.4148C21.0729 10.017 20.3295 9.81818 19.4489 9.81818C18.8049 9.81818 18.2415 9.92235 17.7585 10.1307C17.2803 10.339 16.9063 10.6255 16.6364 10.9901C16.3712 11.3546 16.2386 11.7689 16.2386 12.233C16.2386 12.6212 16.331 12.955 16.5156 13.2344C16.705 13.509 16.9465 13.7386 17.2401 13.9233C17.5336 14.1032 17.8414 14.2524 18.1634 14.3707C18.4853 14.4844 18.7812 14.5767 19.0511 14.6477L20.5284 15.0455C20.9072 15.1449 21.3286 15.2822 21.7926 15.4574C22.2614 15.6326 22.7088 15.8717 23.1349 16.1747C23.5658 16.473 23.9209 16.8565 24.2003 17.3253C24.4796 17.794 24.6193 18.3693 24.6193 19.0511C24.6193 19.8371 24.4134 20.5473 24.0014 21.1818C23.5942 21.8163 22.9976 22.3205 22.2116 22.6946C21.4304 23.0687 20.4811 23.2557 19.3636 23.2557C18.322 23.2557 17.42 23.0876 16.6577 22.7514C15.9001 22.4152 15.3035 21.9465 14.8679 21.3452C14.437 20.7438 14.1932 20.0455 14.1364 19.25H15.9545C16.0019 19.7992 16.1866 20.2538 16.5085 20.6136C16.8352 20.9687 17.2472 21.2339 17.7443 21.4091C18.2462 21.5795 18.786 21.6648 19.3636 21.6648C20.036 21.6648 20.6397 21.5559 21.1747 21.3381C21.7098 21.1155 22.1335 20.8078 22.446 20.4148C22.7585 20.017 22.9148 19.553 22.9148 19.0227C22.9148 18.5398 22.7798 18.1468 22.5099 17.8438C22.2401 17.5407 21.8849 17.2945 21.4446 17.1051C21.0043 16.9157 20.5284 16.75 20.017 16.608L18.2273 16.0966C17.0909 15.7699 16.1913 15.3035 15.5284 14.6974C14.8655 14.0914 14.5341 13.2983 14.5341 12.3182C14.5341 11.5038 14.7543 10.7936 15.1946 10.1875C15.6397 9.5767 16.2363 9.10322 16.9844 8.76705C17.7372 8.42614 18.5777 8.25568 19.5057 8.25568C20.4432 8.25568 21.2765 8.42377 22.0057 8.75994C22.7348 9.09138 23.3125 9.54593 23.7386 10.1236C24.1695 10.7012 24.3968 11.357 24.4205 12.0909H22.7159Z" fill="black"/>
</svg>
