{
	"asset":{
		"generator":"Khronos glTF Blender I/O v4.0.44",
		"version":"2.0"
	},
	"scene":0,
	"scenes":[
		{
			"name":"Scene",
			"nodes":[
				0,
				1,
				2,
				3,
				4,
				5,
				6,
				7,
				8,
				9,
				10,
				11,
				12,
				13,
				14
			]
		}
	],
	"nodes":[
		{
			"mesh":0,
			"name":"Plane",
			"scale":[
				3.3085827827453613,
				1,
				2.7965822219848633
			]
		},
		{
			"mesh":1,
			"name":"Cube.002",
			"scale":[
				0.3500000238418579,
				0.020000040531158447,
				1
			],
			"translation":[
				-0.64317387342453,
				0.8615567088127136,
				0
			]
		},
		{
			"mesh":2,
			"name":"Cube.003",
			"scale":[
				0.020000040531158447,
				0.75,
				0.020000040531158447
			],
			"translation":[
				0.39620399475097656,
				1.2039179801940918,
				-1.012585997581482
			]
		},
		{
			"mesh":3,
			"name":"Cube.004",
			"scale":[
				0.1899999976158142,
				0.020000040531158447,
				1
			],
			"translation":[
				-0.7999999523162842,
				1.6474499702453613,
				0
			]
		},
		{
			"mesh":4,
			"name":"Cube.006",
			"rotation":[
				-0.00944096315652132,
				-0.21623358130455017,
				0.042585428804159164,
				0.9753668308258057
			],
			"scale":[
				0.01954015903174877,
				0.21316446363925934,
				0.3336080014705658
			],
			"translation":[
				-0.6334574222564697,
				1.21084463596344,
				-0.5316097736358643
			]
		},
		{
			"mesh":5,
			"name":"Cube.008",
			"rotation":[
				0,
				0.7071068286895752,
				0,
				0.7071068286895752
			],
			"scale":[
				0.050000011920928955,
				1,
				1.858903169631958
			],
			"translation":[
				-1,
				2.9166789054870605,
				-1
			]
		},
		{
			"mesh":6,
			"name":"Text",
			"rotation":[
				0.5,
				0.5,
				-0.5,
				0.5
			],
			"scale":[
				0.38596051931381226,
				1.159999966621399,
				0.38596051931381226
			],
			"translation":[
				-0.7863976955413818,
				1.6782348155975342,
				0.897770345211029
			]
		},
		{
			"mesh":7,
			"name":"Text.001",
			"rotation":[
				0.5,
				0.5,
				-0.5,
				0.5
			],
			"scale":[
				0.5201935172080994,
				1.159999966621399,
				0.5201935172080994
			],
			"translation":[
				-0.7863976955413818,
				1.9485697746276855,
				0.897770345211029
			]
		},
		{
			"mesh":8,
			"name":"Cube",
			"rotation":[
				0,
				1,
				0,
				4.371138828673793e-08
			],
			"scale":[
				0.25886669754981995,
				0.2800000011920929,
				0.141333669424057
			],
			"translation":[
				-0.6430537700653076,
				0.26870134472846985,
				0.3404400944709778
			]
		},
		{
			"mesh":9,
			"name":"Cube.007",
			"rotation":[
				0,
				0,
				0.04361938685178757,
				0.9990482926368713
			],
			"scale":[
				0.01954015903174877,
				0.21316446363925934,
				0.3336080014705658
			],
			"translation":[
				-0.7811303734779358,
				1.21084463596344,
				0.16398106515407562
			]
		},
		{
			"mesh":10,
			"name":"Cube.001",
			"rotation":[
				0,
				0.7071068286895752,
				0,
				0.7071068286895752
			],
			"scale":[
				0.1899999976158142,
				0.020000040531158447,
				1
			],
			"translation":[
				0.7079689502716064,
				2.085296630859375,
				-0.8397629261016846
			]
		},
		{
			"mesh":11,
			"name":"Plane.001",
			"scale":[
				3.3085827827453613,
				1,
				2.7965822219848633
			],
			"translation":[
				1.5073018074035645,
				3.3414180278778076,
				0.7923768758773804
			]
		},
		{
			"mesh":12,
			"name":"Cube.005",
			"scale":[
				0.03000001609325409,
				0.21035735309123993,
				0.030000029131770134
			],
			"translation":[
				-0.8189446330070496,
				1.0709558725357056,
				0.11490872502326965
			]
		},
		{
			"mesh":13,
			"name":"Cube.009",
			"rotation":[
				0,
				-0.1993679255247116,
				0,
				0.9799246788024902
			],
			"scale":[
				0.03000001795589924,
				0.21035735309123993,
				0.030000029131770134
			],
			"translation":[
				-0.6671698093414307,
				1.0709558725357056,
				-0.5507409572601318
			]
		},
		{
			"mesh":14,
			"name":"Cube.010",
			"scale":[
				0.09000001847743988,
				0.020000040531158447,
				0.20000004768371582
			],
			"translation":[
				-0.49105212092399597,
				0.8908238410949707,
				0
			]
		}
	],
	"meshes":[
		{
			"name":"Plane",
			"primitives":[
				{
					"attributes":{
						"POSITION":0,
						"NORMAL":1,
						"TEXCOORD_0":2
					},
					"indices":3
				}
			]
		},
		{
			"name":"Cube.006",
			"primitives":[
				{
					"attributes":{
						"POSITION":4,
						"NORMAL":5,
						"TEXCOORD_0":6
					},
					"indices":7
				}
			]
		},
		{
			"name":"Cube.007",
			"primitives":[
				{
					"attributes":{
						"POSITION":8,
						"NORMAL":9,
						"TEXCOORD_0":10
					},
					"indices":7
				}
			]
		},
		{
			"name":"Cube.008",
			"primitives":[
				{
					"attributes":{
						"POSITION":11,
						"NORMAL":12,
						"TEXCOORD_0":13
					},
					"indices":7
				}
			]
		},
		{
			"name":"Cube.010",
			"primitives":[
				{
					"attributes":{
						"POSITION":14,
						"NORMAL":15,
						"TEXCOORD_0":16
					},
					"indices":17
				}
			]
		},
		{
			"name":"Cube.014",
			"primitives":[
				{
					"attributes":{
						"POSITION":18,
						"NORMAL":19,
						"TEXCOORD_0":20
					},
					"indices":21
				}
			]
		},
		{
			"name":"Text.001",
			"primitives":[
				{
					"attributes":{
						"POSITION":22,
						"NORMAL":23,
						"TEXCOORD_0":24
					},
					"indices":25
				}
			]
		},
		{
			"name":"Text.002",
			"primitives":[
				{
					"attributes":{
						"POSITION":26,
						"NORMAL":27,
						"TEXCOORD_0":28
					},
					"indices":29
				}
			]
		},
		{
			"name":"Cube.016",
			"primitives":[
				{
					"attributes":{
						"POSITION":30,
						"NORMAL":31,
						"TEXCOORD_0":32
					},
					"indices":33
				}
			]
		},
		{
			"name":"Cube.002",
			"primitives":[
				{
					"attributes":{
						"POSITION":34,
						"NORMAL":35,
						"TEXCOORD_0":36
					},
					"indices":37
				}
			]
		},
		{
			"name":"Cube.011",
			"primitives":[
				{
					"attributes":{
						"POSITION":38,
						"NORMAL":39,
						"TEXCOORD_0":40
					},
					"indices":7
				}
			]
		},
		{
			"name":"Plane.001",
			"primitives":[
				{
					"attributes":{
						"POSITION":41,
						"NORMAL":42,
						"TEXCOORD_0":43
					},
					"indices":3
				}
			]
		},
		{
			"name":"Cube.012",
			"primitives":[
				{
					"attributes":{
						"POSITION":44,
						"NORMAL":45,
						"TEXCOORD_0":46
					},
					"indices":7
				}
			]
		},
		{
			"name":"Cube.013",
			"primitives":[
				{
					"attributes":{
						"POSITION":47,
						"NORMAL":48,
						"TEXCOORD_0":49
					},
					"indices":7
				}
			]
		},
		{
			"name":"Cube.015",
			"primitives":[
				{
					"attributes":{
						"POSITION":50,
						"NORMAL":51,
						"TEXCOORD_0":52
					},
					"indices":7
				}
			]
		}
	],
	"accessors":[
		{
			"bufferView":0,
			"componentType":5126,
			"count":4,
			"max":[
				1,
				0,
				1
			],
			"min":[
				-1,
				0,
				-1
			],
			"type":"VEC3"
		},
		{
			"bufferView":1,
			"componentType":5126,
			"count":4,
			"type":"VEC3"
		},
		{
			"bufferView":2,
			"componentType":5126,
			"count":4,
			"type":"VEC2"
		},
		{
			"bufferView":3,
			"componentType":5123,
			"count":6,
			"type":"SCALAR"
		},
		{
			"bufferView":4,
			"componentType":5126,
			"count":24,
			"max":[
				1,
				1,
				1
			],
			"min":[
				-1,
				-1,
				-1
			],
			"type":"VEC3"
		},
		{
			"bufferView":5,
			"componentType":5126,
			"count":24,
			"type":"VEC3"
		},
		{
			"bufferView":6,
			"componentType":5126,
			"count":24,
			"type":"VEC2"
		},
		{
			"bufferView":7,
			"componentType":5123,
			"count":36,
			"type":"SCALAR"
		},
		{
			"bufferView":8,
			"componentType":5126,
			"count":24,
			"max":[
				1,
				1,
				1
			],
			"min":[
				-1,
				-1,
				-1
			],
			"type":"VEC3"
		},
		{
			"bufferView":9,
			"componentType":5126,
			"count":24,
			"type":"VEC3"
		},
		{
			"bufferView":10,
			"componentType":5126,
			"count":24,
			"type":"VEC2"
		},
		{
			"bufferView":11,
			"componentType":5126,
			"count":24,
			"max":[
				1,
				1,
				1
			],
			"min":[
				-1,
				-1,
				-1
			],
			"type":"VEC3"
		},
		{
			"bufferView":12,
			"componentType":5126,
			"count":24,
			"type":"VEC3"
		},
		{
			"bufferView":13,
			"componentType":5126,
			"count":24,
			"type":"VEC2"
		},
		{
			"bufferView":14,
			"componentType":5126,
			"count":48,
			"max":[
				1.0000005960464478,
				0.9999998211860657,
				1
			],
			"min":[
				-1.0000005960464478,
				-1.000000238418579,
				-1.000000238418579
			],
			"type":"VEC3"
		},
		{
			"bufferView":15,
			"componentType":5126,
			"count":48,
			"type":"VEC3"
		},
		{
			"bufferView":16,
			"componentType":5126,
			"count":48,
			"type":"VEC2"
		},
		{
			"bufferView":17,
			"componentType":5123,
			"count":84,
			"type":"SCALAR"
		},
		{
			"bufferView":18,
			"componentType":5126,
			"count":216,
			"max":[
				17.178058624267578,
				1,
				2.957336902618408
			],
			"min":[
				-57.17805099487305,
				-2.9166789054870605,
				-1
			],
			"type":"VEC3"
		},
		{
			"bufferView":19,
			"componentType":5126,
			"count":216,
			"type":"VEC3"
		},
		{
			"bufferView":20,
			"componentType":5126,
			"count":216,
			"type":"VEC2"
		},
		{
			"bufferView":21,
			"componentType":5123,
			"count":324,
			"type":"SCALAR"
		},
		{
			"bufferView":22,
			"componentType":5126,
			"count":992,
			"max":[
				4.625000476837158,
				0.05999999865889549,
				0.009000000543892384
			],
			"min":[
				0.01600000075995922,
				-0.05999999865889549,
				-0.6910000443458557
			],
			"type":"VEC3"
		},
		{
			"bufferView":23,
			"componentType":5126,
			"count":992,
			"type":"VEC3"
		},
		{
			"bufferView":24,
			"componentType":5126,
			"count":992,
			"type":"VEC2"
		},
		{
			"bufferView":25,
			"componentType":5123,
			"count":2868,
			"type":"SCALAR"
		},
		{
			"bufferView":26,
			"componentType":5126,
			"count":1186,
			"max":[
				2.7930002212524414,
				0.05999999865889549,
				0.009000000543892384
			],
			"min":[
				0,
				-0.05999999865889549,
				-0.6860000491142273
			],
			"type":"VEC3"
		},
		{
			"bufferView":27,
			"componentType":5126,
			"count":1186,
			"type":"VEC3"
		},
		{
			"bufferView":28,
			"componentType":5126,
			"count":1186,
			"type":"VEC2"
		},
		{
			"bufferView":29,
			"componentType":5123,
			"count":3444,
			"type":"SCALAR"
		},
		{
			"bufferView":30,
			"componentType":5126,
			"count":48,
			"max":[
				1,
				1.0000001192092896,
				1
			],
			"min":[
				-1,
				-1.0000001192092896,
				-1
			],
			"type":"VEC3"
		},
		{
			"bufferView":31,
			"componentType":5126,
			"count":48,
			"type":"VEC3"
		},
		{
			"bufferView":32,
			"componentType":5126,
			"count":48,
			"type":"VEC2"
		},
		{
			"bufferView":33,
			"componentType":5123,
			"count":84,
			"type":"SCALAR"
		},
		{
			"bufferView":34,
			"componentType":5126,
			"count":48,
			"max":[
				1.0000038146972656,
				1.0000003576278687,
				1
			],
			"min":[
				-0.9999961853027344,
				-0.9999996423721313,
				-1
			],
			"type":"VEC3"
		},
		{
			"bufferView":35,
			"componentType":5126,
			"count":48,
			"type":"VEC3"
		},
		{
			"bufferView":36,
			"componentType":5126,
			"count":48,
			"type":"VEC2"
		},
		{
			"bufferView":37,
			"componentType":5123,
			"count":84,
			"type":"SCALAR"
		},
		{
			"bufferView":38,
			"componentType":5126,
			"count":24,
			"max":[
				1,
				1,
				1
			],
			"min":[
				-1,
				-1,
				-1
			],
			"type":"VEC3"
		},
		{
			"bufferView":39,
			"componentType":5126,
			"count":24,
			"type":"VEC3"
		},
		{
			"bufferView":40,
			"componentType":5126,
			"count":24,
			"type":"VEC2"
		},
		{
			"bufferView":41,
			"componentType":5126,
			"count":4,
			"max":[
				1,
				0,
				1
			],
			"min":[
				-1,
				0,
				-1
			],
			"type":"VEC3"
		},
		{
			"bufferView":42,
			"componentType":5126,
			"count":4,
			"type":"VEC3"
		},
		{
			"bufferView":43,
			"componentType":5126,
			"count":4,
			"type":"VEC2"
		},
		{
			"bufferView":44,
			"componentType":5126,
			"count":24,
			"max":[
				1,
				1,
				1
			],
			"min":[
				-1,
				-1,
				-1
			],
			"type":"VEC3"
		},
		{
			"bufferView":45,
			"componentType":5126,
			"count":24,
			"type":"VEC3"
		},
		{
			"bufferView":46,
			"componentType":5126,
			"count":24,
			"type":"VEC2"
		},
		{
			"bufferView":47,
			"componentType":5126,
			"count":24,
			"max":[
				1,
				1,
				1
			],
			"min":[
				-1,
				-1,
				-1
			],
			"type":"VEC3"
		},
		{
			"bufferView":48,
			"componentType":5126,
			"count":24,
			"type":"VEC3"
		},
		{
			"bufferView":49,
			"componentType":5126,
			"count":24,
			"type":"VEC2"
		},
		{
			"bufferView":50,
			"componentType":5126,
			"count":24,
			"max":[
				1,
				1,
				1
			],
			"min":[
				-1,
				-1,
				-1
			],
			"type":"VEC3"
		},
		{
			"bufferView":51,
			"componentType":5126,
			"count":24,
			"type":"VEC3"
		},
		{
			"bufferView":52,
			"componentType":5126,
			"count":24,
			"type":"VEC2"
		}
	],
	"bufferViews":[
		{
			"buffer":0,
			"byteLength":48,
			"byteOffset":0,
			"target":34962
		},
		{
			"buffer":0,
			"byteLength":48,
			"byteOffset":48,
			"target":34962
		},
		{
			"buffer":0,
			"byteLength":32,
			"byteOffset":96,
			"target":34962
		},
		{
			"buffer":0,
			"byteLength":12,
			"byteOffset":128,
			"target":34963
		},
		{
			"buffer":0,
			"byteLength":288,
			"byteOffset":140,
			"target":34962
		},
		{
			"buffer":0,
			"byteLength":288,
			"byteOffset":428,
			"target":34962
		},
		{
			"buffer":0,
			"byteLength":192,
			"byteOffset":716,
			"target":34962
		},
		{
			"buffer":0,
			"byteLength":72,
			"byteOffset":908,
			"target":34963
		},
		{
			"buffer":0,
			"byteLength":288,
			"byteOffset":980,
			"target":34962
		},
		{
			"buffer":0,
			"byteLength":288,
			"byteOffset":1268,
			"target":34962
		},
		{
			"buffer":0,
			"byteLength":192,
			"byteOffset":1556,
			"target":34962
		},
		{
			"buffer":0,
			"byteLength":288,
			"byteOffset":1748,
			"target":34962
		},
		{
			"buffer":0,
			"byteLength":288,
			"byteOffset":2036,
			"target":34962
		},
		{
			"buffer":0,
			"byteLength":192,
			"byteOffset":2324,
			"target":34962
		},
		{
			"buffer":0,
			"byteLength":576,
			"byteOffset":2516,
			"target":34962
		},
		{
			"buffer":0,
			"byteLength":576,
			"byteOffset":3092,
			"target":34962
		},
		{
			"buffer":0,
			"byteLength":384,
			"byteOffset":3668,
			"target":34962
		},
		{
			"buffer":0,
			"byteLength":168,
			"byteOffset":4052,
			"target":34963
		},
		{
			"buffer":0,
			"byteLength":2592,
			"byteOffset":4220,
			"target":34962
		},
		{
			"buffer":0,
			"byteLength":2592,
			"byteOffset":6812,
			"target":34962
		},
		{
			"buffer":0,
			"byteLength":1728,
			"byteOffset":9404,
			"target":34962
		},
		{
			"buffer":0,
			"byteLength":648,
			"byteOffset":11132,
			"target":34963
		},
		{
			"buffer":0,
			"byteLength":11904,
			"byteOffset":11780,
			"target":34962
		},
		{
			"buffer":0,
			"byteLength":11904,
			"byteOffset":23684,
			"target":34962
		},
		{
			"buffer":0,
			"byteLength":7936,
			"byteOffset":35588,
			"target":34962
		},
		{
			"buffer":0,
			"byteLength":5736,
			"byteOffset":43524,
			"target":34963
		},
		{
			"buffer":0,
			"byteLength":14232,
			"byteOffset":49260,
			"target":34962
		},
		{
			"buffer":0,
			"byteLength":14232,
			"byteOffset":63492,
			"target":34962
		},
		{
			"buffer":0,
			"byteLength":9488,
			"byteOffset":77724,
			"target":34962
		},
		{
			"buffer":0,
			"byteLength":6888,
			"byteOffset":87212,
			"target":34963
		},
		{
			"buffer":0,
			"byteLength":576,
			"byteOffset":94100,
			"target":34962
		},
		{
			"buffer":0,
			"byteLength":576,
			"byteOffset":94676,
			"target":34962
		},
		{
			"buffer":0,
			"byteLength":384,
			"byteOffset":95252,
			"target":34962
		},
		{
			"buffer":0,
			"byteLength":168,
			"byteOffset":95636,
			"target":34963
		},
		{
			"buffer":0,
			"byteLength":576,
			"byteOffset":95804,
			"target":34962
		},
		{
			"buffer":0,
			"byteLength":576,
			"byteOffset":96380,
			"target":34962
		},
		{
			"buffer":0,
			"byteLength":384,
			"byteOffset":96956,
			"target":34962
		},
		{
			"buffer":0,
			"byteLength":168,
			"byteOffset":97340,
			"target":34963
		},
		{
			"buffer":0,
			"byteLength":288,
			"byteOffset":97508,
			"target":34962
		},
		{
			"buffer":0,
			"byteLength":288,
			"byteOffset":97796,
			"target":34962
		},
		{
			"buffer":0,
			"byteLength":192,
			"byteOffset":98084,
			"target":34962
		},
		{
			"buffer":0,
			"byteLength":48,
			"byteOffset":98276,
			"target":34962
		},
		{
			"buffer":0,
			"byteLength":48,
			"byteOffset":98324,
			"target":34962
		},
		{
			"buffer":0,
			"byteLength":32,
			"byteOffset":98372,
			"target":34962
		},
		{
			"buffer":0,
			"byteLength":288,
			"byteOffset":98404,
			"target":34962
		},
		{
			"buffer":0,
			"byteLength":288,
			"byteOffset":98692,
			"target":34962
		},
		{
			"buffer":0,
			"byteLength":192,
			"byteOffset":98980,
			"target":34962
		},
		{
			"buffer":0,
			"byteLength":288,
			"byteOffset":99172,
			"target":34962
		},
		{
			"buffer":0,
			"byteLength":288,
			"byteOffset":99460,
			"target":34962
		},
		{
			"buffer":0,
			"byteLength":192,
			"byteOffset":99748,
			"target":34962
		},
		{
			"buffer":0,
			"byteLength":288,
			"byteOffset":99940,
			"target":34962
		},
		{
			"buffer":0,
			"byteLength":288,
			"byteOffset":100228,
			"target":34962
		},
		{
			"buffer":0,
			"byteLength":192,
			"byteOffset":100516,
			"target":34962
		}
	],
	"buffers":[
		{
			"byteLength":100708,
			"uri":"scene.bin"
		}
	]
}
